<svg fill="#000000" height="800px" width="800px" version="1.1" id="Layer_1" xmlns="http://www.w3.org/2000/svg" xmlns:xlink="http://www.w3.org/1999/xlink" 
	 viewBox="0 0 496 496" xml:space="preserve">
<g>
	<g>
		<path d="M352.232,0c-38.4,0-74.504,14.96-101.656,42.112L248,44.688l-2.576-2.576C218.272,14.96,182.168,0,143.768,0
			C64.496,0,0,64.496,0,143.768c0,38.4,14.952,74.504,42.128,101.672L228.24,430.784c7.472,7.448,11.76,17.776,11.76,28.328V496h16
			v-36.888c0-14.776-6-29.224-16.464-39.656L53.424,234.112C29.288,209.976,16,177.888,16,143.768C16,73.32,73.312,16,143.768,16
			c34.128,0,66.208,13.296,90.344,37.432L248,67.312l13.888-13.888C286.024,29.296,318.112,16,352.232,16
			C422.688,16,480,73.312,480,143.76c0,34.128-13.288,66.216-37.424,90.344l-132.632,132.64C303.976,372.712,296.04,376,287.6,376
			c-17.424,0-31.6-14.176-31.6-31.6V248h24c74.992,0,136-61.008,136-136v-8h-40c-59.008,0-109.216,37.848-128,90.488
			C229.216,141.848,179.008,104,120,104H80v8c0,74.992,61.008,136,136,136h24v96.4c0,26.248,21.352,47.6,47.6,47.6
			c12.712,0,24.664-4.952,33.656-13.944l132.632-132.64C481.048,218.272,496,182.168,496,143.76C496,64.496,431.504,0,352.232,0z
			 M376,120h23.736C395.6,182.448,343.48,232,280,232h-23.736C260.4,169.552,312.52,120,376,120z M216,232
			c-63.48,0-115.6-49.552-119.736-112H120c63.48,0,115.6,49.552,119.736,112H216z"/>
	</g>
</g>
</svg>